<svg xmlns="http://www.w3.org/2000/svg" viewBox="0 0 600 1000" width="600" height="1000" font-family="'Noto Sans TC','PingFang TC','Heiti TC',sans-serif">
<rect width="600" height="1000" fill="#083D25"/>
<rect x="18" y="18" width="564" height="964" rx="14" fill="#0E5E3A"/>
<text x="300" y="92" font-size="50" font-weight="800" fill="#FFFFFF" text-anchor="middle">收費標準</text>
<text x="300" y="130" font-size="22" fill="#FFFFFF" opacity=".75" text-anchor="middle">紅雲撞球坊</text>
<rect x="50" y="156" width="500" height="48" rx="10" fill="#FFD34E" fill-opacity=".15"/><text x="70" y="190" font-size="30" font-weight="800" fill="#FFD34E">檯費</text><text x="70" y="256" font-size="30" fill="#FFFFFF">一般檯費</text><text x="530" y="256" font-size="32" font-weight="700" fill="#FFD34E" text-anchor="end">NT$140/時</text><line x1="70" y1="282" x2="530" y2="282" stroke="#9AD7B5" stroke-opacity=".3" stroke-dasharray="6 6"/><text x="70" y="318" font-size="30" fill="#FFFFFF">學生</text><text x="530" y="318" font-size="32" font-weight="700" fill="#FFD34E" text-anchor="end">9 折</text><text x="70" y="348" font-size="20" fill="#FFFFFF" opacity=".65">出示學生證</text><line x1="70" y1="366" x2="530" y2="366" stroke="#9AD7B5" stroke-opacity=".3" stroke-dasharray="6 6"/><text x="70" y="402" font-size="30" fill="#FFFFFF">Poolgress 球桌</text><text x="530" y="402" font-size="32" font-weight="700" fill="#FFD34E" text-anchor="end">不另收費</text><line x1="70" y1="428" x2="530" y2="428" stroke="#9AD7B5" stroke-opacity=".3" stroke-dasharray="6 6"/><rect x="50" y="470" width="500" height="48" rx="10" fill="#FFD34E" fill-opacity=".15"/><text x="70" y="504" font-size="30" font-weight="800" fill="#FFD34E">包台優惠</text><text x="530" y="504" font-size="20" fill="#FFFFFF" opacity=".7" text-anchor="end">週一至週四</text><text x="70" y="570" font-size="30" fill="#FFFFFF">包台 3 小時</text><text x="530" y="570" font-size="32" font-weight="700" fill="#FFD34E" text-anchor="end">NT$360</text><line x1="70" y1="596" x2="530" y2="596" stroke="#9AD7B5" stroke-opacity=".3" stroke-dasharray="6 6"/><text x="70" y="632" font-size="30" fill="#FFFFFF">包台 5 小時</text><text x="530" y="632" font-size="32" font-weight="700" fill="#FFD34E" text-anchor="end">NT$560</text><text x="70" y="662" font-size="20" fill="#FFFFFF" opacity=".65">送巧克一顆</text><line x1="70" y1="680" x2="530" y2="680" stroke="#9AD7B5" stroke-opacity=".3" stroke-dasharray="6 6"/>
<text x="300" y="950" font-size="20" fill="#FFFFFF" opacity=".6" text-anchor="middle">現金・行動支付皆可・國定假日除外</text>
</svg>