<svg xmlns="http://www.w3.org/2000/svg" viewBox="0 0 600 1000" width="600" height="1000" font-family="'Noto Sans TC','PingFang TC','Heiti TC',sans-serif">
<rect width="600" height="1000" fill="#1E293B"/>
<rect x="18" y="18" width="564" height="964" rx="14" fill="#FFFDF6"/>
<text x="300" y="92" font-size="50" font-weight="800" fill="#1E293B" text-anchor="middle">收費說明</text>
<text x="300" y="130" font-size="22" fill="#1E293B" opacity=".75" text-anchor="middle">Pool House 撞球家族</text>
<rect x="50" y="156" width="500" height="48" rx="10" fill="#D93F3F" fill-opacity=".15"/><text x="70" y="190" font-size="30" font-weight="800" fill="#D93F3F">檯費</text><text x="530" y="190" font-size="20" fill="#1E293B" opacity=".7" text-anchor="end">24 小時同價</text><text x="70" y="256" font-size="30" fill="#1E293B">檯費</text><text x="530" y="256" font-size="32" font-weight="700" fill="#D93F3F" text-anchor="end">NT$130/時</text><line x1="70" y1="282" x2="530" y2="282" stroke="#94A3B8" stroke-opacity=".3" stroke-dasharray="6 6"/><text x="70" y="318" font-size="30" fill="#1E293B">Poolgress 球桌</text><text x="530" y="318" font-size="32" font-weight="700" fill="#D93F3F" text-anchor="end">+NT$30/時</text><text x="70" y="348" font-size="20" fill="#1E293B" opacity=".65">含錄影與擊球回顧</text><line x1="70" y1="366" x2="530" y2="366" stroke="#94A3B8" stroke-opacity=".3" stroke-dasharray="6 6"/><text x="70" y="402" font-size="30" fill="#1E293B">會員</text><text x="530" y="402" font-size="32" font-weight="700" fill="#D93F3F" text-anchor="end">9 折</text><text x="70" y="432" font-size="20" fill="#1E293B" opacity=".65">入會免費</text><line x1="70" y1="450" x2="530" y2="450" stroke="#94A3B8" stroke-opacity=".3" stroke-dasharray="6 6"/><rect x="50" y="492" width="500" height="48" rx="10" fill="#D93F3F" fill-opacity=".15"/><text x="70" y="526" font-size="30" font-weight="800" fill="#D93F3F">包台優惠</text><text x="530" y="526" font-size="20" fill="#1E293B" opacity=".7" text-anchor="end">平日限定</text><text x="70" y="592" font-size="30" fill="#1E293B">包台 3 小時</text><text x="530" y="592" font-size="32" font-weight="700" fill="#D93F3F" text-anchor="end">NT$350</text><line x1="70" y1="618" x2="530" y2="618" stroke="#94A3B8" stroke-opacity=".3" stroke-dasharray="6 6"/><text x="70" y="654" font-size="30" fill="#1E293B">包台 6 小時</text><text x="530" y="654" font-size="32" font-weight="700" fill="#D93F3F" text-anchor="end">NT$650</text><text x="70" y="684" font-size="20" fill="#1E293B" opacity=".65">送一小時</text><line x1="70" y1="702" x2="530" y2="702" stroke="#94A3B8" stroke-opacity=".3" stroke-dasharray="6 6"/><text x="70" y="738" font-size="30" fill="#1E293B">團體 4 人以上</text><text x="530" y="738" font-size="32" font-weight="700" fill="#D93F3F" text-anchor="end">8 折</text><text x="70" y="768" font-size="20" fill="#1E293B" opacity=".65">需預約</text><line x1="70" y1="786" x2="530" y2="786" stroke="#94A3B8" stroke-opacity=".3" stroke-dasharray="6 6"/>
<text x="300" y="950" font-size="20" fill="#1E293B" opacity=".6" text-anchor="middle">計時以 30 分鐘為單位</text>
</svg>